<?xml version="1.0" encoding="UTF-8"?>
<svg xmlns="http://www.w3.org/2000/svg" viewBox="0 0 32 32" fill="none">
  <!-- Roof Structure (Gable Roof) -->
  <!-- Main Roof Surface Left -->
  <path d="M4 20 L16 6 L28 20 L24 20 L16 10 L8 20 Z" 
        fill="#92400e" 
        stroke="#7c2d12" 
        stroke-width="1"/>
  
  <!-- Main Roof Surface Right -->
  <path d="M16 6 L28 20 L28 24 L16 10 Z" 
        fill="#b45309" 
        stroke="#7c2d12" 
        stroke-width="1"/>
  
  <!-- Roof Edge/Fascia -->
  <path d="M4 20 L8 20 L8 22 L4 22 Z" 
        fill="#7c2d12" 
        stroke="#451a03" 
        stroke-width="0.5"/>
  
  <path d="M24 20 L28 20 L28 22 L24 22 Z" 
        fill="#7c2d12" 
        stroke="#451a03" 
        stroke-width="0.5"/>
  
  <!-- Ridge Line -->
  <line x1="16" y1="6" 
        x2="16" y2="10" 
        stroke="#451a03" 
        stroke-width="1.5"/>
  
  <!-- Roof Tiles/Shingles Pattern -->
  <!-- Left Side Tiles -->
  <g opacity="0.3">
    <line x1="6" y1="18" x2="14" y2="10" stroke="#7c2d12" stroke-width="0.5"/>
    <line x1="8" y1="19" x2="15" y2="12" stroke="#7c2d12" stroke-width="0.5"/>
    <line x1="10" y1="20" x2="16" y2="14" stroke="#7c2d12" stroke-width="0.5"/>
  </g>
  
  <!-- Right Side Tiles -->
  <g opacity="0.3">
    <line x1="18" y1="10" x2="26" y2="18" stroke="#92400e" stroke-width="0.5"/>
    <line x1="17" y1="12" x2="24" y2="19" stroke="#92400e" stroke-width="0.5"/>
    <line x1="16" y1="14" x2="22" y2="20" stroke="#92400e" stroke-width="0.5"/>
  </g>
  
  <!-- Gutter/Eave Details -->
  <rect x="7" y="20" width="2" height="1" 
        fill="#6b7280" 
        stroke="#374151" 
        stroke-width="0.5"/>
  
  <rect x="23" y="20" width="2" height="1" 
        fill="#6b7280" 
        stroke="#374151" 
        stroke-width="0.5"/>
  
  <!-- Chimney (Optional Detail) -->
  <rect x="20" y="12" width="3" height="6" 
        fill="#dc2626" 
        stroke="#991b1b" 
        stroke-width="1"/>
  
  <rect x="19.5" y="11.5" width="4" height="1" 
        fill="#991b1b" 
        stroke="#7f1d1d" 
        stroke-width="0.5"/>
  
  <!-- Shadow and Depth -->
  <path d="M4 20 L16 6 L16 10 L8 20 Z" 
        fill="rgba(0,0,0,0.1)"/>
  
  <!-- Roof Peak Highlight -->
  <path d="M4 20 L16 6 L18 8 L6 20 Z" 
        fill="rgba(255,255,255,0.1)"/>
  
  <!-- Building Base (partial) -->
  <rect x="6" y="20" width="20" height="6" 
        fill="#8b7355" 
        stroke="#6b5b47" 
        stroke-width="1" 
        opacity="0.7"/>
</svg>