<?xml version="1.0" encoding="UTF-8"?>
<svg id="SlabIcon" xmlns="http://www.w3.org/2000/svg" viewBox="0 0 32 32">
  <defs>
    <style>
      .slab-primary {
        fill: #6b7280;
        stroke: #4b5563;
        stroke-width: 0.5;
      }
      .slab-accent {
        fill: #8b94a8;
      }
      .slab-shadow {
        fill: #374151;
        opacity: 0.4;
      }
      .slab-highlight {
        fill: #9ca3af;
      }
      .slab-depth {
        fill: #4b5563;
      }
    </style>
  </defs>
  
  <!-- Shadow underneath slab -->
  <ellipse class="slab-shadow" cx="16" cy="28" rx="14" ry="3" opacity="0.3"/>
  
  <!-- Main slab surface (top view) -->
  <rect class="slab-primary" x="4" y="10" width="24" height="16" rx="1"/>
  
  <!-- Slab edge/depth (3D effect) -->
  <path class="slab-depth" d="M28,10 L30,8 L30,24 L28,26 Z"/>
  <path class="slab-depth" d="M4,26 L6,28 L30,28 L28,26 Z"/>
  
  <!-- Surface texture/pattern -->
  <!-- Concrete aggregate pattern -->
  <rect class="slab-accent" x="6" y="12" width="2" height="2" rx="1" opacity="0.6"/>
  <rect class="slab-accent" x="10" y="14" width="1.5" height="1.5" rx="0.7" opacity="0.6"/>
  <rect class="slab-accent" x="14" y="13" width="2" height="2" rx="1" opacity="0.6"/>
  <rect class="slab-accent" x="18" y="15" width="1.5" height="1.5" rx="0.7" opacity="0.6"/>
  <rect class="slab-accent" x="22" y="12" width="2" height="2" rx="1" opacity="0.6"/>
  <rect class="slab-accent" x="8" y="18" width="1.5" height="1.5" rx="0.7" opacity="0.6"/>
  <rect class="slab-accent" x="12" y="20" width="2" height="2" rx="1" opacity="0.6"/>
  <rect class="slab-accent" x="16" y="19" width="1.5" height="1.5" rx="0.7" opacity="0.6"/>
  <rect class="slab-accent" x="20" y="21" width="2" height="2" rx="1" opacity="0.6"/>
  <rect class="slab-accent" x="24" y="18" width="1.5" height="1.5" rx="0.7" opacity="0.6"/>
  
  <!-- Reinforcement bars (rebar) indication -->
  <line x1="6" y1="16" x2="26" y2="16" stroke="#5a4628" stroke-width="0.5" opacity="0.4"/>
  <line x1="6" y1="20" x2="26" y2="20" stroke="#5a4628" stroke-width="0.5" opacity="0.4"/>
  <line x1="12" y1="12" x2="12" y2="24" stroke="#5a4628" stroke-width="0.5" opacity="0.4"/>
  <line x1="20" y1="12" x2="20" y2="24" stroke="#5a4628" stroke-width="0.5" opacity="0.4"/>
  
  <!-- Top surface highlight -->
  <rect class="slab-highlight" x="4" y="10" width="24" height="1" rx="0.5"/>
  
  <!-- Edge highlight -->
  <path class="slab-highlight" d="M28,10 L30,8 L30,9 L28,11 Z" opacity="0.7"/>
</svg>